#!OML:ASF X:\für Bonn\!DataBase\2005_08_12_Daniel\c3d\Daniel.ASF
:FULLY-SPECIFIED
:DEGREES
32
root 18.9995 16.7403 0.557358 -731.892 -64.7588 729.162
lowerback 12.4294 -2.03831 -3.20711
upperback 3.0713 -3.40009 -3.79453
thorax -3.78764 -1.71973 -1.62945
lowerneck 4.97021 -1.58373 -4.51201
upperneck 1.68971 -2.38986 6.3532
head -0.187822 -1.27946 2.84656
rclavicle -8.83598e-014 1.35174e-014
rhumerus -43.5869 19.5238 -104.657
rradius 59.0819
rwrist 6.30301
rhand -19.6296 19.3594
rfingers 7.12502
rthumb 6.69744 -10.5147
lclavicle -8.83598e-014 1.35174e-014
lhumerus -41.9528 3.66488 85.1571
lradius 116.819
lwrist 197.372
lhand -13.0258 14.0152
lfingers 7.12502
lthumb 13.0683 43.5857
rfemur -23.7822 -4.99218 9.28144
rtibia 51.8389
rfoot -22.9097 7.93081
rtoes -13.7221
lfemur -4.92825 -13.9098 -28.4407
ltibia 43.55
lfoot -36.8929 5.56773
ltoes -13.98
33
root 18.9703 16.7264 0.555711 -731.876 -64.6512 729.119
lowerback 12.4139 -2.05119 -3.40245
upperback 3.08869 -3.44243 -3.82093
thorax -3.75144 -1.74031 -1.54229
lowerneck 4.8751 -1.75753 -4.42048
upperneck 1.99511 -2.63231 6.49071
head -0.059619 -1.39948 2.87457
rclavicle 4.17448e-015 -1.11319e-014
rhumerus -43.4876 19.1693 -104.45
rradius 59.0549
rwrist 6.32896
rhand -19.4079 19.3812
rfingers 7.12502
rthumb 6.91141 -10.486
lclavicle 4.17448e-015 -1.11319e-014
lhumerus -42.0437 3.52629 85.3479
lradius 116.673
lwrist 197.33
lhand -13.0637 13.964
lfingers 7.12502
lthumb 13.0318 43.537
rfemur -24.0952 -5.68628 9.29851
rtibia 52.5191
rfoot -22.6865 8.00357
rtoes -13.3439
lfemur -4.90182 -13.798 -28.3656
ltibia 43.7222
lfoot -36.9946 5.39646
ltoes -14.0718
34
root 18.9389 16.7125 0.554108 -731.862 -64.5456 729.078
lowerback 12.382 -2.07706 -3.5876
upperback 3.09646 -3.49892 -3.83558
thorax -3.71597 -1.76773 -1.44698
lowerneck 4.81181 -1.90388 -4.31474
upperneck 2.31198 -2.83987 6.57046
head 0.063784 -1.50163 2.88012
rclavicle 2.6339e-014 7.95139e-015
rhumerus -43.4371 18.7932 -104.233
rradius 59.0219
rwrist 6.31117
rhand -19.2277 19.3996
rfingers 7.12502
rthumb 7.08539 -10.4618
lclavicle 2.6339e-014 7.95139e-015
lhumerus -42.0426 3.46754 85.5825
lradius 116.457
lwrist 197.308
lhand -13.1718 13.8718
lfingers 7.12502
lthumb 12.9275 43.4514
rfemur -24.4328 -6.41021 9.32024
rtibia 53.2464
rfoot -22.4386 8.07153
rtoes -12.8406
lfemur -4.87167 -13.6741 -28.2901
ltibia 43.8978
lfoot -37.0994 5.25877
ltoes -14.2352
35
root 18.9057 16.6977 0.552306 -731.879 -64.4516 729.071
lowerback 12.3142 -2.12093 -3.74009
upperback 3.12021 -3.57288 -3.86398
thorax -3.64659 -1.80493 -1.38361
lowerneck 4.75401 -2.01576 -4.37565
upperneck 2.61931 -3.01156 6.76637
head 0.185394 -1.58754 2.95615
rclavicle -2.38542e-015 1.51076e-014
rhumerus -43.4116 18.4026 -104.021
rradius 59.0128
rwrist 6.18268
rhand -19.0726 19.4555
rfingers 7.12502
rthumb 7.23504 -10.4008
lclavicle -2.38542e-015 1.51076e-014
lhumerus -41.9392 3.47126 85.7995
lradius 116.193
lwrist 197.284
lhand -13.3497 13.8104
lfingers 7.12502
lthumb 12.7561 43.4007
rfemur -24.7934 -7.1128 9.33261
rtibia 54.0281
rfoot -22.113 8.08592
rtoes -12.069
lfemur -4.83406 -13.567 -28.2344
ltibia 44.0742
lfoot -37.1991 5.16595
ltoes -14.3903
36
root 18.8706 16.682 0.550245 -731.845 -64.3793 729.012
lowerback 12.212 -2.16977 -3.84304
upperback 3.14893 -3.64463 -3.89753
thorax -3.55635 -1.84186 -1.3554
lowerneck 4.75832 -2.10746 -4.44468
upperneck 2.88445 -3.15721 6.94305
head 0.28185 -1.66153 3.02847
rclavicle 1.68967e-014 2.78299e-014
rhumerus -43.414 17.9708 -103.823
rradius 59.0344
rwrist 6.009
rhand -18.9411 19.4621
rfingers 7.12502
rthumb 7.362 -10.3898
lclavicle 1.68967e-014 2.78299e-014
lhumerus -41.8142 3.43167 85.9525
lradius 115.982
lwrist 197.336
lhand -13.5348 13.6786
lfingers 7.12502
lthumb 12.5776 43.28
rfemur -25.1734 -7.85659 9.39154
rtibia 54.8512
rfoot -21.7344 8.06781
rtoes -11.2712
lfemur -4.79794 -13.4701 -28.1528
ltibia 44.2631
lfoot -37.3443 5.07087
ltoes -14.4987
37
root 18.8333 16.6655 0.548948 -731.827 -64.3167 728.955
lowerback 12.1126 -2.22441 -3.95371
upperback 3.18232 -3.72437 -3.92496
thorax -3.4616 -1.88291 -1.31565
lowerneck 4.74092 -2.17382 -4.51032
upperneck 3.16604 -3.26998 7.11277
head 0.385684 -1.71847 3.09729
rclavicle 2.98177e-015 -2.78299e-014
rhumerus -43.428 17.4931 -103.617
rradius 59.0516
rwrist 5.79489
rhand -18.8408 19.5395
rfingers 7.12502
rthumb 7.45881 -10.3091
lclavicle 2.98177e-015 -2.78299e-014
lhumerus -41.6981 3.40581 86.0971
lradius 115.829
lwrist 197.386
lhand -13.7357 13.6252
lfingers 7.12502
lthumb 12.384 43.2383
rfemur -25.5471 -8.59882 9.45558
rtibia 55.7058
rfoot -21.3703 7.95601
rtoes -10.7844
lfemur -4.73372 -13.391 -28.0804
ltibia 44.4553
lfoot -37.4999 4.99787
ltoes -14.6502
38
root 18.7936 16.6474 0.54729 -731.792 -64.2729 728.879
lowerback 12.007 -2.28545 -4.06514
upperback 3.20719 -3.8118 -3.94638
thorax -3.37163 -1.9276 -1.26855
lowerneck 4.76873 -2.21938 -4.52264
upperneck 3.45198 -3.35423 7.22307
head 0.479662 -1.76128 3.13642
rclavicle -4.30369e-014 -6.99722e-014
rhumerus -43.5161 17.0054 -103.417
rradius 59.1133
rwrist 5.60994
rhand -18.753 19.621
rfingers 7.12502
rthumb 7.54359 -10.2245
lclavicle -4.30369e-014 -6.99722e-014
lhumerus -41.6059 3.37707 86.1669
lradius 115.744
lwrist 197.526
lhand -13.9656 13.6285
lfingers 7.12502
lthumb 12.1622 43.2549
rfemur -25.94 -9.32484 9.54289
rtibia 56.5801
rfoot -21.0224 7.78134
rtoes -10.5395
lfemur -4.66127 -13.286 -27.9905
ltibia 44.6451
lfoot -37.6492 4.92583
ltoes -14.7713
39
root 18.752 16.6294 0.546179 -731.795 -64.2715 728.841
lowerback 11.8896 -2.34295 -4.19815
upperback 3.23955 -3.89516 -3.95716
thorax -3.2649 -1.97066 -1.20009
lowerneck 4.80131 -2.2403 -4.54685
upperneck 3.70513 -3.40467 7.32766
head 0.560545 -1.78745 3.17615
rclavicle 6.62947e-014 -3.18055e-015
rhumerus -43.5841 16.4798 -103.193
rradius 59.1406
rwrist 5.46578
rhand -18.6041 19.7548
rfingers 7.12502
rthumb 7.68728 -10.0855
lclavicle 6.62947e-014 -3.18055e-015
lhumerus -41.452 3.35782 86.2377
lradius 115.676
lwrist 197.637
lhand -14.1781 13.7174
lfingers 7.12502
lthumb 11.9573 43.3559
rfemur -26.3551 -10.0001 9.62376
rtibia 57.4556
rfoot -20.6885 7.64968
rtoes -10.4597
lfemur -4.55484 -13.21 -27.9294
ltibia 44.8058
lfoot -37.8215 4.89828
ltoes -14.8394
40
root 18.7066 16.6136 0.545259 -731.756 -64.2723 728.781
lowerback 11.738 -2.41117 -4.33761
upperback 3.2586 -3.99012 -3.95536
thorax -3.15149 -2.01932 -1.11511
lowerneck 4.83445 -2.2389 -4.55301
upperneck 3.98803 -3.42608 7.39507
head 0.648042 -1.79874 3.19955
rclavicle 2.19657e-014 1.66979e-014
rhumerus -43.7346 16.0082 -102.984
rradius 59.2091
rwrist 5.35178
rhand -18.5082 19.8392
rfingers 7.12502
rthumb 7.77987 -9.99769
lclavicle 2.19657e-014 1.66979e-014
lhumerus -41.2609 3.34219 86.3296
lradius 115.599
lwrist 197.718
lhand -14.3512 13.9273
lfingers 7.12502
lthumb 11.7905 43.5754
rfemur -26.8169 -10.6853 9.72206
rtibia 58.3283
rfoot -20.3633 7.63528
rtoes -10.6673
lfemur -4.43257 -13.1661 -27.8632
ltibia 44.923
lfoot -37.9858 4.94698
ltoes -15.034
41
root 18.657 16.6018 0.54494 -731.736 -64.2946 728.723
lowerback 11.5746 -2.47921 -4.4734
upperback 3.29743 -4.0826 -3.9577
thorax -3.01105 -2.06786 -1.03865
lowerneck 4.83659 -2.23248 -4.50046
upperneck 4.26458 -3.43573 7.412
head 0.73608 -1.80262 3.19409
rclavicle 4.96962e-014 3.73715e-014
rhumerus -43.9155 15.5522 -102.782
rradius 59.3407
rwrist 5.31621
rhand -18.3776 19.8714
rfingers 7.12502
rthumb 7.90594 -9.96074
lclavicle 4.96962e-014 3.73715e-014
lhumerus -40.9683 3.2883 86.396
lradius 115.507
lwrist 197.838
lhand -14.5138 14.2235
lfingers 7.12502
lthumb 11.6336 43.8805
rfemur -27.2811 -11.2863 9.82273
rtibia 59.1685
rfoot -19.9896 7.73778
rtoes -10.7162
lfemur -4.23633 -13.1482 -27.812
ltibia 44.98
lfoot -38.1453 5.03472
ltoes -15.1908
42
root 18.6036 16.5915 0.545245 -731.714 -64.3251 728.672
lowerback 11.3983 -2.5546 -4.61651
upperback 3.31818 -4.18408 -3.94872
thorax -2.88049 -2.12044 -0.946021
lowerneck 4.88684 -2.20644 -4.44467
upperneck 4.51847 -3.41886 7.40663
head 0.80628 -1.79433 3.18125
rclavicle 3.13086e-014 4.92986e-014
rhumerus -44.1741 15.1255 -102.582
rradius 59.5092
rwrist 5.34754
rhand -18.2851 19.915
rfingers 7.12502
rthumb 7.99513 -9.91377
lclavicle 3.13086e-014 4.92986e-014
lhumerus -40.6694 3.20697 86.4831
lradius 115.429
lwrist 197.917
lhand -14.6103 14.5133
lfingers 7.12502
lthumb 11.5406 44.1756
rfemur -27.7621 -11.8678 9.91575
rtibia 59.9551
rfoot -19.5276 7.90365
rtoes -10.6907
lfemur -3.99601 -13.1947 -27.7861
ltibia 44.9867
lfoot -38.3104 5.18138
ltoes -15.3575
